# xmcd
#
# Track frame offsets: 
#        150
#        34436
#        64855
#        94228
#        129221
#        154729
#        179075
#        209533
#        231029
#        249821
#        273978
#        294089
#
# Disc length: 4244 seconds
#
# Revision: 0
# Processed by: cddbd v1.5.2PL0 Copyright (c) Steve Scherf et al.
# Submitted via: ExactAudioCopy v0.95b4
#
DISCID=a810920c
DTITLE=Eric Clapton - Best Birthday
DYEAR=1998
DGENRE=Blues
TTITLE0=My Father's Eyes
TTITLE1=Pilgrim
TTITLE2=One Chance
TTITLE3=River Of Tears
TTITLE4=Going Down Slow
TTITLE5=Born In Time
TTITLE6=She's Gone
TTITLE7=Tears In Heaven
TTITLE8=Circus
TTITLE9=Layla
TTITLE10=Needs His Woman
TTITLE11=Change The World
EXTD=
EXTT0=
EXTT1=
EXTT2=
EXTT3=
EXTT4=
EXTT5=
EXTT6=
EXTT7=
EXTT8=
EXTT9=
EXTT10=
EXTT11=
PLAYORDER=
